<svg id="link" xmlns="http://www.w3.org/2000/svg" width="97" height="97" viewBox="0 0 97 97">
  <metadata><?xpacket begin="﻿" id="W5M0MpCehiHzreSzNTczkc9d"?>
<x:xmpmeta xmlns:x="adobe:ns:meta/" x:xmptk="Adobe XMP Core 5.6-c142 79.160924, 2017/07/13-01:06:39        ">
   <rdf:RDF xmlns:rdf="http://www.w3.org/1999/02/22-rdf-syntax-ns#">
      <rdf:Description rdf:about=""/>
   </rdf:RDF>
</x:xmpmeta>
                                                                                                    
                                                                                                    
                                                                                                    
                                                                                                    
                                                                                                    
                                                                                                    
                                                                                                    
                                                                                                    
                                                                                                    
                                                                                                    
                                                                                                    
                                                                                                    
                                                                                                    
                                                                                                    
                                                                                                    
                                                                                                    
                                                                                                    
                                                                                                    
                                                                                                    
                                                                                                    
                           
<?xpacket end="w"?></metadata>
<defs>
    <style>
      .cls-1 {
        fill: #2ecc71;
      }

      .cls-2 {
        fill: #fff;
        fill-rule: evenodd;
      }
    </style>
  </defs>
  <circle id="container" class="cls-1" cx="48.5" cy="48.5" r="48.5"/>
  <path id="link-2" data-name="link" class="cls-2" d="M713.546,1568.36l-6.019,10.47a3.427,3.427,0,0,1-4.7,1.26l-1.49-.86,1.72-2.99h0a1.719,1.719,0,0,0,2.35-.63l4.3-7.48a1.73,1.73,0,0,0-.629-2.36l-5.958-3.46a1.717,1.717,0,0,0-2.349.63l-4.3,7.48a1.73,1.73,0,0,0,.629,2.36l-1.719,3-1.49-.87a3.461,3.461,0,0,1-1.259-4.72l6.02-10.47a3.427,3.427,0,0,1,4.7-1.26l8.936,5.18A3.463,3.463,0,0,1,713.546,1568.36ZM693.2,1586.48a1.731,1.731,0,0,1-.629-2.36l6.879-11.97a1.722,1.722,0,1,1,2.979,1.73l-6.88,11.97A1.717,1.717,0,0,1,693.2,1586.48Zm-1.259-4.72h0a1.717,1.717,0,0,0-2.349.63l-4.3,7.48a1.73,1.73,0,0,0,.629,2.36l5.958,3.46a1.727,1.727,0,0,0,2.35-.63l4.3-7.48a1.73,1.73,0,0,0-.629-2.36h0l1.72-3,1.489,0.87a3.461,3.461,0,0,1,1.259,4.72l-6.019,10.47a3.427,3.427,0,0,1-4.7,1.26l-8.937-5.18a3.463,3.463,0,0,1-1.259-4.72l6.02-10.47a3.438,3.438,0,0,1,4.7-1.27l1.49,0.87Z" transform="translate(-650 -1529)"/>
</svg>
