<svg xmlns="http://www.w3.org/2000/svg" width="33.47" height="33.75" viewBox="0 0 33.47 33.75">
  <metadata><?xpacket begin="﻿" id="W5M0MpCehiHzreSzNTczkc9d"?>
<x:xmpmeta xmlns:x="adobe:ns:meta/" x:xmptk="Adobe XMP Core 5.6-c142 79.160924, 2017/07/13-01:06:39        ">
   <rdf:RDF xmlns:rdf="http://www.w3.org/1999/02/22-rdf-syntax-ns#">
      <rdf:Description rdf:about=""/>
   </rdf:RDF>
</x:xmpmeta>
                                                                                                    
                                                                                                    
                                                                                                    
                                                                                                    
                                                                                                    
                                                                                                    
                                                                                                    
                                                                                                    
                                                                                                    
                                                                                                    
                                                                                                    
                                                                                                    
                                                                                                    
                                                                                                    
                                                                                                    
                                                                                                    
                                                                                                    
                                                                                                    
                                                                                                    
                                                                                                    
                           
<?xpacket end="w"?></metadata>
<defs>
    <style>
      .cls-1 {
        fill: #dadada;
        fill-rule: evenodd;
      }
    </style>
  </defs>
  <path id="pinterest.png" class="cls-1" d="M1068.65,46.264a16.869,16.869,0,1,0,16.72,16.868A16.8,16.8,0,0,0,1068.65,46.264Zm0,29.519a12.652,12.652,0,1,1,12.54-12.651A12.6,12.6,0,0,1,1068.65,75.783Zm5.44-14.641a4.843,4.843,0,0,0-5.11-4.664c-3.84,0-5.77,2.773-5.77,5.085a3.136,3.136,0,0,0,1.65,3.11,0.274,0.274,0,0,0,.4-0.2c0.04-.143.13-0.5,0.17-0.654a0.4,0.4,0,0,0-.12-0.454,2.385,2.385,0,0,1-.53-1.6,3.84,3.84,0,0,1,3.97-3.9,3.033,3.033,0,0,1,3.36,3.119c0,2.347-1.03,4.328-2.56,4.328a1.257,1.257,0,0,1-1.27-1.568,17.817,17.817,0,0,0,.71-2.888,1.084,1.084,0,0,0-1.09-1.222,1.864,1.864,0,0,0-1.55,2.107,3.229,3.229,0,0,0,.25,1.288s-0.88,3.775-1.03,4.436a9.293,9.293,0,0,0-.03,3.094,0.106,0.106,0,0,0,.19.047,8.7,8.7,0,0,0,1.46-2.664c0.1-.362.57-2.237,0.57-2.237a2.308,2.308,0,0,0,1.97,1.014c2.59,0,4.36-2.386,4.36-5.579" transform="translate(-1051.91 -46.25)"/>
</svg>
