<svg id="services" xmlns="http://www.w3.org/2000/svg" width="1400" height="200" viewBox="0 0 1400 200">
  <metadata><?xpacket begin="﻿" id="W5M0MpCehiHzreSzNTczkc9d"?>
<x:xmpmeta xmlns:x="adobe:ns:meta/" x:xmptk="Adobe XMP Core 5.6-c142 79.160924, 2017/07/13-01:06:39        ">
   <rdf:RDF xmlns:rdf="http://www.w3.org/1999/02/22-rdf-syntax-ns#">
      <rdf:Description rdf:about=""/>
   </rdf:RDF>
</x:xmpmeta>
                                                                                                    
                                                                                                    
                                                                                                    
                                                                                                    
                                                                                                    
                                                                                                    
                                                                                                    
                                                                                                    
                                                                                                    
                                                                                                    
                                                                                                    
                                                                                                    
                                                                                                    
                                                                                                    
                                                                                                    
                                                                                                    
                                                                                                    
                                                                                                    
                                                                                                    
                                                                                                    
                           
<?xpacket end="w"?></metadata>
<defs>
    <style>
      .cls-1 {
        fill: #efefef;
      }

      .cls-2, .cls-4 {
        font-size: 18px;
        font-family: Novecentowide;
        font-weight: 600;
      }

      .cls-2, .cls-3 {
        fill: #737373;
      }

      .cls-2 {
        text-anchor: middle;
      }

      .cls-3, .cls-5 {
        fill-rule: evenodd;
      }

      .cls-4, .cls-5 {
        fill: #423e3e;
      }
    </style>
  </defs>
  <rect id="container" class="cls-1" width="1401" height="200"/>
  <g id="applications">
    <text id="Applications-2" data-name="Applications" class="cls-2" x="1047.999" y="147.001">Applications</text>
    <path id="icon" class="cls-3" d="M1024.57,964h42.86a3.577,3.577,0,0,1,3.57,3.583v35.837a3.574,3.574,0,0,1-3.57,3.58h-42.86a3.574,3.574,0,0,1-3.57-3.58V967.583A3.577,3.577,0,0,1,1024.57,964Zm0.43,9h42v30h-42V973Zm17-6h25v3h-25v-3Zm-14.75-.313a1.792,1.792,0,1,1-1.79,1.792A1.781,1.781,0,0,1,1027.25,966.687Zm5.36,0a1.792,1.792,0,1,1-1.79,1.792A1.788,1.788,0,0,1,1032.61,966.687Zm5.47,0a1.792,1.792,0,1,1-1.79,1.792A1.788,1.788,0,0,1,1038.08,966.687Z" transform="translate(0 -907)"/>
  </g>
  <g id="seo">
    <text id="SEO-2" data-name="SEO" class="cls-2" x="828.001" y="147.001">SEO</text>
    <path id="icon-2" data-name="icon" class="cls-3" d="M848.082,1007.99l-1.094,1.1a3.108,3.108,0,0,1-4.375,0l-8.748-8.74a3.045,3.045,0,0,1-.437-3.714l-4.783-4.776a15.482,15.482,0,1,1,2.291-2.081l4.679,4.673a3.053,3.053,0,0,1,3.718.436l8.749,8.742A3.076,3.076,0,0,1,848.082,1007.99ZM831.017,979.4a11.536,11.536,0,0,0-16.565-10.43c0.808,0.828,2.025,2.066,2.09,2.066-1.257,0-5.371,4.109-5.371,5.461,0-.066-1.31-1.307-2.167-2.112a11.463,11.463,0,0,0-1.187,5.015A11.6,11.6,0,0,0,831.017,979.4Z" transform="translate(0 -907)"/>
  </g>
  <g id="photography">
    <text id="Photography-2" data-name="Photography" class="cls-4" x="518" y="147.001">Photography</text>
    <path id="icon-3" data-name="icon" class="cls-5" d="M567.448,974.25H570.9V969l13.793,0.109-0.006,5.171,25.868-.03a3.474,3.474,0,0,1,3.448,3.5v29.75a3.476,3.476,0,0,1-3.448,3.5h-43.1a3.477,3.477,0,0,1-3.449-3.5V977.75A3.475,3.475,0,0,1,567.448,974.25Zm6.9-1.75h6.9v5.25h-6.9V972.5Zm31.9,6.161a3.5,3.5,0,1,1-3.449,3.5A3.474,3.474,0,0,1,606.241,978.661Zm-23.276,2.516a12.253,12.253,0,1,1-12.069,12.25A12.161,12.161,0,0,1,582.965,981.177Zm0,4.667a7.874,7.874,0,1,1-7.759,7.875A7.817,7.817,0,0,1,582.966,985.844Z" transform="translate(0 -907)"/>
  </g>
  <g id="websites">
    <text id="Websites-2" data-name="Websites" class="cls-2" x="347.999" y="147.001">Websites</text>
    <path id="icon-4" data-name="icon" class="cls-3" d="M359.94,982.193h-2.127a15.165,15.165,0,0,1-1.475,3.536l1.965,1.965a3.217,3.217,0,0,1,0,4.552l-1.138,1.138a3.221,3.221,0,0,1-4.555,0l-1.978-1.977a15.163,15.163,0,0,1-3.526,1.45v2.062a3.22,3.22,0,0,1-3.221,3.219h-1.61a3.22,3.22,0,0,1-3.221-3.219v-2.062a15.138,15.138,0,0,1-3.525-1.45l-1.978,1.977a3.221,3.221,0,0,1-4.555,0l-1.139-1.138a3.217,3.217,0,0,1,0-4.552l1.966-1.965a15.168,15.168,0,0,1-1.476-3.536h-2.126A3.22,3.22,0,0,1,323,978.974v-1.609a3.22,3.22,0,0,1,3.221-3.219h2.1a15.153,15.153,0,0,1,1.426-3.511l-1.89-1.889a3.218,3.218,0,0,1,0-4.553L329,963.055a3.222,3.222,0,0,1,4.555,0l1.852,1.852a15.192,15.192,0,0,1,3.651-1.525v-2.163A3.22,3.22,0,0,1,342.275,958h1.61a3.22,3.22,0,0,1,3.221,3.219v2.162a15.219,15.219,0,0,1,3.651,1.526l1.853-1.852a3.222,3.222,0,0,1,4.555,0l1.138,1.138a3.218,3.218,0,0,1,0,4.553l-1.889,1.889a15.15,15.15,0,0,1,1.425,3.511h2.1a3.22,3.22,0,0,1,3.221,3.219v1.609A3.22,3.22,0,0,1,359.94,982.193Zm-16.86-12.826a8.853,8.853,0,1,0,8.858,8.853A8.855,8.855,0,0,0,343.08,969.367Zm0,12.776a4.024,4.024,0,1,1,4.026-4.024A4.025,4.025,0,0,1,343.08,982.143Zm28.358,26.127h-1.031a7.408,7.408,0,0,1-.716,1.71l0.953,0.95a1.563,1.563,0,0,1,0,2.21l-0.552.55a1.562,1.562,0,0,1-2.209,0l-0.96-.95a7.73,7.73,0,0,1-1.709.7v1a1.562,1.562,0,0,1-1.562,1.56H362.87a1.562,1.562,0,0,1-1.562-1.56v-1a7.758,7.758,0,0,1-1.71-.7l-0.959.95a1.562,1.562,0,0,1-2.209,0l-0.552-.55a1.563,1.563,0,0,1,0-2.21l0.953-.95a7.408,7.408,0,0,1-.716-1.71h-1.031a1.562,1.562,0,0,1-1.562-1.56v-0.79a1.562,1.562,0,0,1,1.562-1.56H356.1a7.308,7.308,0,0,1,.691-1.7l-0.916-.92a1.555,1.555,0,0,1,0-2.2l0.552-.552a1.562,1.562,0,0,1,2.209,0l0.9,0.9a7.353,7.353,0,0,1,1.77-.74v-1.049a1.562,1.562,0,0,1,1.562-1.561h0.782a1.562,1.562,0,0,1,1.562,1.561v1.049a7.353,7.353,0,0,1,1.77.74l0.9-.9a1.562,1.562,0,0,1,2.209,0l0.552,0.552a1.555,1.555,0,0,1,0,2.2l-0.916.92a7.4,7.4,0,0,1,.691,1.7h1.019a1.562,1.562,0,0,1,1.562,1.56v0.79A1.562,1.562,0,0,1,371.438,1008.27Zm-8.177-6.22a4.29,4.29,0,1,0,4.3,4.29A4.292,4.292,0,0,0,363.261,1002.05Zm0,6.19a1.95,1.95,0,1,1,1.953-1.95A1.949,1.949,0,0,1,363.261,1008.24Z" transform="translate(0 -907)"/>
  </g>
</svg>
