<svg id="slider-background.jpg" xmlns="http://www.w3.org/2000/svg" width="1400" height="972.031" viewBox="0 0 1400 972.031">
  <metadata><?xpacket begin="﻿" id="W5M0MpCehiHzreSzNTczkc9d"?>
<x:xmpmeta xmlns:x="adobe:ns:meta/" x:xmptk="Adobe XMP Core 5.6-c142 79.160924, 2017/07/13-01:06:39        ">
   <rdf:RDF xmlns:rdf="http://www.w3.org/1999/02/22-rdf-syntax-ns#">
      <rdf:Description rdf:about=""/>
   </rdf:RDF>
</x:xmpmeta>
                                                                                                    
                                                                                                    
                                                                                                    
                                                                                                    
                                                                                                    
                                                                                                    
                                                                                                    
                                                                                                    
                                                                                                    
                                                                                                    
                                                                                                    
                                                                                                    
                                                                                                    
                                                                                                    
                                                                                                    
                                                                                                    
                                                                                                    
                                                                                                    
                                                                                                    
                                                                                                    
                           
<?xpacket end="w"?></metadata>
<defs>
    <style>
      .cls-1 {
        fill: #2ecc71;
      }

      .cls-2 {
        fill-rule: evenodd;
        opacity: 0.05;
      }
    </style>
  </defs>
  <rect id="container" class="cls-1" x="-13" y="0.031" width="1436" height="525"/>
  <path id="sunburst" class="cls-2" d="M0,184.615c35.866-.172,184-4.835,203.073,2.426L731.553,668.19,0,244.455v-59.84Zm400.03,0H581.083q55.046,175.056,110.1,350.147,14.679,46.493,29.36,93c3.458,9.726,15.6,29.223,11.01,38.816v-1.618Zm326.63,0H897.927q-81.344,240.954-162.7,481.958c-2.487,9.452,7.86,28.217,12.234,39.624q17.124,50.535,34.253,101.082Q840.424,981.122,899.15,1155H730.33q1.834-241.764,3.67-483.575c-35.94-.831-90.407,4.061-129.673,8.9l-130.9,9.7L0,724.8V615.628l549.277,41.241L734,669Q730.331,426.831,726.66,184.615Zm331.52,0,218.98,0.808c-1.22.809-2.45,1.618-3.67,2.426L737.67,666.573Q897.911,425.617,1058.18,184.615Zm408.6,39.624q0.6,84.092,1.22,168.2L738.893,668.19Q1102.8,446.237,1466.78,224.239ZM0,385.97L730.33,668.19V669L0,516.972v-131ZM1468,622.905L738.893,669,1468,508.885v114.02ZM736.447,666.573l1.223,1.617ZM1468,717.518V830.73h-1.22q-363.915-80.049-727.887-160.114ZM726.66,671.425h3.67v0.808L0,957.688v-131ZM0,1155v-54.99Q365.741,886.145,731.553,672.233,469.175,913.592,206.743,1155H0ZM736.447,672.233l1.223,1.618Zm2.446,0Q1103.411,806.456,1468,940.707q-0.615,82.069-1.22,164.153-5.505-3.63-11.01-7.27Zm-7.34,1.618c4.949,9.137-7.619,29.422-11.01,38.815q-15.289,48.109-30.583,96.23Q635.527,981.93,581.083,1155H400.03v-0.81Q565.776,914.046,731.553,673.851Zm6.117,0Q1007.388,914.4,1277.16,1155l-220.2-.81Z" transform="translate(0 -182.969)"/>
</svg>
